<svg viewBox="0 0 189 40" fill="none" xmlns="http://www.w3.org/2000/svg"><path d="M60.621 16.031v-2.556h-3.92v15.209h3.92v-9.12c0-1.651 1.06-2.462 2.71-2.462h2.146v-3.627h-1.832c-1.435 0-2.682.748-3.024 2.556zM69.15 7.46c-1.341 0-2.37 1.06-2.37 2.4a2.347 2.347 0 002.37 2.369c1.34 0 2.368-1.06 2.368-2.369 0-1.34-1.027-2.4-2.368-2.4zm-1.956 21.225h3.911v-15.21h-3.91v15.21zm22.539-7.605a7.861 7.861 0 01-7.862 7.862 7.563 7.563 0 01-4.614-1.544v5.752h-3.91V13.475h3.91v1.287a7.564 7.564 0 014.614-1.544 7.861 7.861 0 017.862 7.861zm-3.935 0a4.272 4.272 0 00-8.541 0 4.27 4.27 0 108.54 0zm71.904-1.334l-2.282-.625c-1.502-.392-2.085-.852-2.085-1.645 0-.773.823-1.314 1.998-1.314 1.12 0 1.998.733 1.998 1.671v.087h3.604v-.087c0-2.76-2.25-4.614-5.602-4.614-3.318 0-5.73 1.852-5.73 4.407 0 1.986 1.317 3.483 3.614 4.105l2.185.596c1.661.46 2.277.97 2.277 1.884 0 .963-.891 1.611-2.219 1.611-1.383 0-2.315-.876-2.315-2.176v-.087h-3.825v.087c0 3.12 2.511 5.3 6.109 5.3 3.466 0 5.982-2.13 5.982-5.061 0-1.44-.643-3.32-3.709-4.139zm-54.096-6.27h3.91v15.209h-3.91v-1.287a7.565 7.565 0 01-4.615 1.544 7.861 7.861 0 110-15.723c1.752 0 3.341.574 4.615 1.544v-1.287zm0 7.604a4.27 4.27 0 10-8.54 0 4.27 4.27 0 008.54 0zm18.031-13.016h3.911v20.623h-3.911V27.4a7.565 7.565 0 01-4.615 1.544 7.86 7.86 0 01-7.861-7.862 7.86 7.86 0 017.861-7.86c1.752 0 3.341.573 4.615 1.543V8.063zm0 13.016a4.272 4.272 0 10-4.271 4.27 4.27 4.27 0 004.271-4.27zm22.067 7.605h3.91v-15.21h-3.91v15.21zm1.955-21.225c-1.341 0-2.369 1.06-2.369 2.4a2.347 2.347 0 002.369 2.369 2.347 2.347 0 002.369-2.369c0-1.34-1.028-2.4-2.369-2.4zm32.655 13.62a7.862 7.862 0 11-15.724 0 7.862 7.862 0 0115.724 0zm-3.591 0a4.272 4.272 0 00-8.541 0 4.27 4.27 0 008.541 0zM43.618 8.063v3.488h5.553v17.133h3.897V11.55h5.553V8.063H43.618zm90.865 16.456l-3.479-11.044h-4.108l5.218 15.209h4.706l5.249-15.21h-4.107l-3.479 11.044zm49.56-8.488v-2.556h-3.92v15.209h3.92v-9.12c0-1.651 1.059-2.462 2.71-2.462h2.145v-3.627h-1.832c-1.435 0-2.679.748-3.023 2.556z" fill="#000"/><path fill-rule="evenodd" clip-rule="evenodd" d="M20.998 39c10.493 0 19-8.507 19-19s-8.506-19-19-19c-10.493 0-19 8.507-19 19s8.507 19 19 19zm20-19c0 11.046-8.954 20-20 20s-20-8.954-20-20 8.954-20 20-20 20 8.954 20 20z" fill="#000"/><path d="M33.35 16.098l2.414-2.625h-5.352a16.616 16.616 0 00-9.414-2.897 16.576 16.576 0 00-9.397 2.897H6.236l2.413 2.625a7.377 7.377 0 109.984 10.863l2.365 2.574 2.364-2.572a7.38 7.38 0 0012.393-5.412 7.344 7.344 0 00-2.404-5.453zM13.622 26.543a4.992 4.992 0 110-9.984 4.992 4.992 0 110 9.984zM21 21.406c0-3.285-2.389-6.105-5.542-7.31a14.324 14.324 0 015.54-1.108c1.964 0 3.837.395 5.542 1.108-3.151 1.207-5.54 4.025-5.54 7.31zm7.377 5.137a4.992 4.992 0 110-9.984 4.991 4.991 0 110 9.984zm0-7.611a2.616 2.616 0 100 5.233 2.616 2.616 0 100-5.233zM16.238 21.55a2.616 2.616 0 11-5.233 0 2.616 2.616 0 115.233 0z" fill="#000"/></svg>
